{"buffers":[{"uri":"Hex Nut v1.bin","byteLength":151224}],"asset":{"version":"2.0","generator":"gltfpack 0.16"},"bufferViews":[{"buffer":0,"byteOffset":0,"byteLength":60600,"byteStride":12,"target":34962},{"buffer":0,"byteOffset":60600,"byteLength":60600,"byteStride":12,"target":34962},{"buffer":0,"byteOffset":121200,"byteLength":30024,"target":34963}],"accessors":[{"bufferView":0,"byteOffset":0,"componentType":5126,"count":5050,"type":"VEC3","min":[-1.15470004,0,-1],"max":[1.15470004,1,1]},{"bufferView":1,"byteOffset":0,"componentType":5126,"count":5050,"type":"VEC3"},{"bufferView":2,"byteOffset":0,"componentType":5123,"count":15012,"type":"SCALAR"}],"materials":[{"pbrMetallicRoughness":{"baseColorFactor":[0.627451003,0.627451003,0.627451003,1],"metallicFactor":0},"doubleSided":true}],"meshes":[{"primitives":[{"attributes":{"POSITION":0,"NORMAL":1},"mode":4,"indices":2,"material":0}]}],"nodes":[{"mesh":0},{"children":[0]}],"scenes":[{"nodes":[1]}]}