{"buffers":[{"uri":"knights v1.bin","byteLength":151512}],"asset":{"version":"2.0","generator":"gltfpack 0.16"},"bufferViews":[{"buffer":0,"byteOffset":0,"byteLength":53184,"byteStride":12,"target":34962},{"buffer":0,"byteOffset":53184,"byteLength":53184,"byteStride":12,"target":34962},{"buffer":0,"byteOffset":106368,"byteLength":45144,"target":34963}],"accessors":[{"bufferView":0,"byteOffset":0,"componentType":5126,"count":4432,"type":"VEC3","min":[-1.21203995,-1.21390998,-0.00092000002],"max":[1.21454,1.21390998,3.84578991]},{"bufferView":1,"byteOffset":0,"componentType":5126,"count":4432,"type":"VEC3"},{"bufferView":2,"byteOffset":0,"componentType":5123,"count":22572,"type":"SCALAR"}],"materials":[{"pbrMetallicRoughness":{"baseColorFactor":[0.768627465,0.20784314,0.152941182,1],"metallicFactor":0},"doubleSided":true}],"meshes":[{"primitives":[{"attributes":{"POSITION":0,"NORMAL":1},"mode":4,"indices":2,"material":0}]}],"nodes":[{"mesh":0},{"children":[0]}],"scenes":[{"nodes":[1]}]}