{"buffers":[{"uri":"Lego v2.bin","byteLength":109032}],"asset":{"version":"2.0","generator":"gltfpack 0.16"},"bufferViews":[{"buffer":0,"byteOffset":0,"byteLength":39420,"byteStride":12,"target":34962},{"buffer":0,"byteOffset":39420,"byteLength":39420,"byteStride":12,"target":34962},{"buffer":0,"byteOffset":78840,"byteLength":30192,"target":34963}],"accessors":[{"bufferView":0,"byteOffset":0,"componentType":5126,"count":3285,"type":"VEC3","min":[0,0,0],"max":[3.18000007,1.58000004,1.12998998]},{"bufferView":1,"byteOffset":0,"componentType":5126,"count":3285,"type":"VEC3"},{"bufferView":2,"byteOffset":0,"componentType":5123,"count":15096,"type":"SCALAR"}],"materials":[{"pbrMetallicRoughness":{"baseColorFactor":[0.627451003,0.627451003,0.627451003,1],"metallicFactor":0},"doubleSided":true}],"meshes":[{"primitives":[{"attributes":{"POSITION":0,"NORMAL":1},"mode":4,"indices":2,"material":0}]}],"nodes":[{"mesh":0},{"children":[0]}],"scenes":[{"nodes":[1]}]}