{"buffers":[{"uri":"Mug(practice) v1.bin","byteLength":32076}],"asset":{"version":"2.0","generator":"gltfpack 0.16"},"bufferViews":[{"buffer":0,"byteOffset":0,"byteLength":11640,"byteStride":12,"target":34962},{"buffer":0,"byteOffset":11640,"byteLength":11640,"byteStride":12,"target":34962},{"buffer":0,"byteOffset":23280,"byteLength":8796,"target":34963}],"accessors":[{"bufferView":0,"byteOffset":0,"componentType":5126,"count":970,"type":"VEC3","min":[0,0.00582000008,0],"max":[8,5.99417019,7.75]},{"bufferView":1,"byteOffset":0,"componentType":5126,"count":970,"type":"VEC3"},{"bufferView":2,"byteOffset":0,"componentType":5123,"count":4398,"type":"SCALAR"}],"materials":[{"pbrMetallicRoughness":{"baseColorFactor":[0.627451003,0.627451003,0.627451003,1],"metallicFactor":0},"doubleSided":true}],"meshes":[{"primitives":[{"attributes":{"POSITION":0,"NORMAL":1},"mode":4,"indices":2,"material":0}]}],"nodes":[{"mesh":0},{"children":[0]}],"scenes":[{"nodes":[1]}]}